<?xml version="1.0" encoding="utf-8"?>
<!-- Generator: Adobe Illustrator 19.2.1, SVG Export Plug-In . SVG Version: 6.00 Build 0)  -->
<svg version="1.1" id="layer" xmlns="http://www.w3.org/2000/svg" xmlns:xlink="http://www.w3.org/1999/xlink" x="0px" y="0px"
	 viewBox="0 0 652 652" style="enable-background:new 0 0 652 652;" xml:space="preserve">
<style type="text/css">
	.st0{fill:#D4003B;}
	.st1{fill:#FFFFFF;}
</style>
<polygon class="st0" points="251.2,311.9 272.1,311.9 277.6,307.3 277.6,300.8 251.2,300.8 "/>
<polygon class="st0" points="499.8,353 517.1,353 522.6,348.4 522.6,300.9 499.8,300.9 "/>
<path class="st0" d="M686.5,318.7c0-144.5-161.4-246.3-333.8-246.3c-138.3,0-234.2,81.9-286.4,143.9c-71.6,85.1-111.1,96-111.1,96
	c55.5,48.5,81.5,73.3,107.3,101.1c72.7,78.6,132.8,159,303.8,159C569.9,572.4,686.5,439.5,686.5,318.7 M625.8,311.8l22.8,19
	l11.2,11.2l0.1,16.9L630.3,383h-21.8h-0.1l-5.9-5v5.3h-22.6l-11.2-11.2v-30.3h22.6l11.6,11l17.4,0.1l5.5-4.6V342h-21.1l-36.1-30.2
	v-22.3l23.2-19.3H620l5.9,4.9v-4.9h22.6l11.2,11.2v30.3h-22.6l-11.5-10.9h-16.7l-5.9,4.9v6.1H625.8z M369.7,554.7
	c-148,0-205.1-57.3-273.6-130.1C68,394.9,50,369,6.3,333.2l-9.4-21.6c0,0,18.3-6,88.3-88.9c52.8-62.5,144.7-131.9,265-131.9
	c122.5,0,244.9,56.5,292.4,150.2c0,0,4.8,12.9,6.8,16.9H542.3c-21.6-34.1-85.8-73.4-170.9-73.4c-141.5,0-196.1,92.8-196.1,139
	c0,15.8,2,40.3,10.7,56.6c34.4,51.8,105.4,80.2,173.5,80.2c73.7,0,131.7-29,179-64.9h101.1l7.1,16.6
	C599.6,490.7,499.3,554.7,369.7,554.7 M462,300.9h-0.2l-11-11.2h-0.2v-19.4h0.2h71.6l22.8,19.3l11.2,11.2v57.5l-30,24.6H462h-0.2
	l-11-11.2h-0.2V353h0.2h15v-52.1H462z M398,311.8l11.2,11.2v19h-28V353H404V342h22.8l11.1,11.2v29.6h-94.5h-0.2l-11-11.2h-0.1V353
	h0.1h15v-52.1h-3.8h-0.2l-11-11.2h-0.1v-19.4h0.1h94.6l11.1,11.2v30.3h-22.8l-11.6-10.9h-22.4v10.9H398z M255.2,353l11.2,11.2v18.7
	h-53.1l-11.2-11.2V353h15.2v-52.1h-4l-11.2-11.2v-19.4h75.5l23,19.3l11.1,11.2V323l-16.8,13.8l6.9,16.2h6.3l11.2,11.2v18.7h-29
	l-11.2-11.2l-12.8-29.9h-15.1V353H255.2z"/>
<path d="M639.6,395.4c-47.2,78.7-147.4,142.7-276.9,142.7c-148,0-206.1-63.5-274.6-136.2C60,372.1,42.4,345.2-3.1,311.6l9.3,21.6
	C50,369,68,394.8,96.1,424.6c68.5,72.8,125.7,130.1,273.6,130.1c129.6,0,229.8-64.1,276.9-142.7L639.6,395.4z"/>
<path d="M366.5,167.7c-144.7,0-201.5,96.2-201.5,142.2c0,26.8,7.8,50.2,21,70.3c-8.6-16.3-10.7-40.8-10.7-56.7
	c0-46.1,54.6-138.9,196-138.9c85.1,0,149.3,39.3,170.9,73.4h107.1c-2-3.9-6.7-16.9-6.7-16.9H540.4
	C518.8,207,451.6,167.7,366.5,167.7"/>
<path class="st1" d="M88.1,401.9c68.5,72.8,126.6,136.2,274.6,136.2c129.6,0,229.8-64,276.9-142.7H538.5c-47.4,35.9-105.3,65-179,65
	c-68.1,0-139.1-28.4-173.5-80.2c-13.2-20.1-21-43.5-21-70.3c0-46,56.8-142.2,201.5-142.2c85.1,0,152.2,39.3,173.8,73.4h102.3
	C595.1,147.4,472.7,90.9,350.3,90.9c-120.4,0-212.3,69.4-265,131.9c-70,82.8-88.3,88.9-88.3,88.9C42.4,345.2,60,372.1,88.1,401.9"/>
<polygon points="403.6,300.8 415.2,311.7 438,311.7 438,281.5 426.8,270.2 426.8,300.5 404,300.5 404,289.6 369.9,289.6 
	369.9,311.8 381.2,311.8 381.2,300.8 "/>
<polygon points="332.2,371.6 343.2,382.9 343.4,382.9 438,382.9 438,353.2 426.8,342 426.8,371.6 "/>
<polygon points="370,330.8 370,353 381.2,353 381.2,342 409.2,342 409.2,323 398,311.8 398,330.8 "/>
<polygon points="332.2,289.6 343.2,300.9 343.4,300.9 347.2,300.9 347.2,289.6 "/>
<polygon points="202.1,289.6 213.3,300.9 217.2,300.9 217.2,289.6 "/>
<polygon points="202.1,371.6 213.3,382.9 266.4,382.9 266.4,364.2 255.2,353 255.2,371.6 "/>
<polygon points="283.6,325.6 295.4,353 301.7,353 294.8,336.8 311.6,323 311.6,300.7 300.5,289.5 300.5,311.8 "/>
<polygon points="266.3,341.8 261.5,330.5 240.1,330.5 240.1,353 251.2,353 251.2,341.8 "/>
<polygon points="279.1,371.6 290.3,382.9 319.2,382.9 319.2,364.2 308,353 308,371.6 "/>
<polygon points="251.2,300.8 277.6,300.8 277.6,294.4 271.9,289.6 240,289.6 240,311.9 251.2,311.9 "/>
<polygon class="st1" points="370,289.6 404,289.6 404,300.5 426.8,300.5 426.8,270.2 332.2,270.2 332.1,270.2 332.1,289.6 
	332.2,289.6 347.2,289.6 347.2,300.9 347.2,353 332.2,353 332.1,353 332.1,371.6 332.2,371.6 426.8,371.6 426.8,342 404,342 
	404,353 381.2,353 370,353 370,330.8 398,330.8 398,311.8 381.2,311.8 370,311.8 "/>
<path class="st1" d="M240,330.5h21.4l4.8,11.2l12.9,29.9H308V353h-6.3h-6.4l-11.8-27.4l16.9-13.8v-22.3l-23-19.3h-75.4v19.4h15.1
	v11.2V353h-15.1v18.7h53V353h-3.9H240V330.5z M240,289.6h31.9l5.7,4.7v6.5v6.5l-5.5,4.6h-20.9H240V289.6z"/>
<polygon points="450.8,289.6 461.8,300.9 462,300.9 465.8,300.9 465.8,289.6 "/>
<polygon points="499.8,300.8 522.6,300.8 522.6,294.4 516.8,289.6 488.5,289.6 488.5,353 499.8,353 "/>
<polygon points="522.4,371.6 450.8,371.6 461.8,382.9 462,382.9 526.5,382.9 556.5,358.3 556.5,300.7 545.3,289.5 545.3,352.8 "/>
<polygon points="620.2,330.8 591.5,330.8 568.7,311.8 604.8,342 625.9,342 625.9,335.6 "/>
<polygon points="625.8,371.8 597.4,371.8 597.3,371.8 591.3,366.8 591.3,372.1 568.7,372.1 579.9,383.3 602.5,383.3 602.5,378 
	608.5,383.1 608.5,383.1 630.3,383.1 659.8,358.9 659.7,342 648.5,330.8 648.6,352.6 "/>
<polygon points="608.9,300.8 625.6,300.8 637.1,311.7 659.7,311.7 659.7,281.5 648.5,270.2 648.5,300.5 625.9,300.5 625.9,294.5 
	620.1,289.6 597.7,289.6 591.8,294.5 591.8,307.1 597.5,311.8 603,311.8 603,305.7 "/>
<polygon points="596.9,352.8 603,352.8 591.3,341.8 591.3,348.2 "/>
<path class="st1" d="M450.8,353L450.8,353h-0.2v18.7h0.2h71.6l22.8-18.8v-63.3l-22.8-19.3h-71.6h-0.2v19.4h0.2h15v11.2V353H450.8z
	 M488.6,289.6h28.3l5.7,4.7v6.5v47.6l-5.5,4.6h-17.3h-11.2V289.6z"/>
<polygon class="st1" points="591.8,307 591.8,294.5 597.7,289.6 620.1,289.6 625.9,294.5 625.9,300.5 648.5,300.5 648.5,270.2 
	625.9,270.2 625.9,275.2 620,270.2 591.9,270.2 568.7,289.5 568.7,311.8 591.5,330.8 620.2,330.8 625.9,335.6 625.9,342 
	625.9,348.3 620.4,352.9 603,352.8 596.9,352.7 591.3,348.2 591.3,341.8 568.7,341.8 568.7,372.1 591.3,372.1 591.3,366.8 
	597.3,371.8 597.4,371.8 625.8,371.8 648.6,352.6 648.5,330.8 625.8,311.8 603,311.8 597.5,311.8 "/>
<polygon points="644.7,517.3 644.6,517.3 639,501.5 630.4,501.5 630.4,525.6 635.4,525.6 635.4,506.4 635.5,506.4 642.2,525.6 
	647,525.6 654,506.4 654.1,506.4 654.1,525.6 659,525.6 659,501.5 650.6,501.5 "/>
<polygon points="606.6,505.8 613.9,505.8 613.9,525.6 618.8,525.6 618.8,505.8 626.1,505.8 626.1,501.5 606.6,501.5 "/>
</svg>
